<?xml version="1.0" encoding="UTF-8"?>
<!-- Combo test: K1 CHICKEN + Fit in T4 dual color -->
<svg xmlns="http://www.w3.org/2000/svg" viewBox="0 0 780 130" width="780" height="130" role="img" aria-label="CHICKEN Fit combo K1+T4">
  <defs>
    <style>
      @import url('https://fonts.googleapis.com/css2?family=Bricolage+Grotesque:opsz,wght@12..96,700&amp;display=swap');
      .fit {
        font-family: 'Bricolage Grotesque', 'Arial Black', system-ui, sans-serif;
        font-weight: 700;
        font-size: 52px;
        letter-spacing: -1.2px;
      }
    </style>
  </defs>
  <rect width="780" height="130" fill="#FDFCF9"/>
  <g fill="#28211D" transform="translate(16 18) skewX(-6) scale(0.78)">
    <path d="M78 8 C38 8 12 34 12 58 C12 82 38 108 78 108 L78 88 C50 88 32 76 32 58 C32 40 50 28 78 28 L78 8 M78 8 L96 8 L96 28 L78 28 Z M78 88 L96 88 L96 108 L78 108 Z"/>
    <path d="M112 8 L134 8 L134 48 L170 48 L170 8 L192 8 L192 108 L170 108 L170 66 L134 66 L134 108 L112 108 Z"/>
    <path d="M210 8 L248 8 L248 24 L236 24 L236 92 L248 92 L248 108 L210 108 L210 92 L222 92 L222 24 L210 24 Z"/>
    <path d="M318 8 C278 8 252 34 252 58 C252 82 278 108 318 108 L318 88 C290 88 272 76 272 58 C272 40 290 28 318 28 L318 8 M318 8 L336 8 L336 28 L318 28 Z M318 88 L336 88 L336 108 L318 108 Z"/>
    <path d="M352 8 L374 8 L374 50 L410 8 L438 8 L392 56 L442 108 L412 108 L374 64 L374 108 L352 108 Z"/>
    <path d="M458 8 L530 8 L530 26 L482 26 L482 48 L520 48 L520 64 L482 64 L482 90 L530 90 L530 108 L458 108 Z"/>
    <path d="M548 8 L574 8 L622 72 L622 8 L646 8 L646 108 L620 108 L572 42 L572 108 L548 108 Z"/>
  </g>
  <text x="560" y="78" class="fit" fill="#C95530">Fit</text>
</svg>
