<?xml version="1.0" encoding="UTF-8"?>
<svg xmlns="http://www.w3.org/2000/svg" viewBox="0 0 128 128" width="128" height="128" fill="none" role="img">
  <rect width="128" height="128" rx="28" fill="#FAF7F0"/>

  <!-- box body -->
  <path fill="#28211D" d="
    M28 48 H100 V96
    C100 104 92 108 84 108 H44
    C36 108 28 104 28 96 Z"/>
  <!-- lid -->
  <path fill="#28211D" d="
    M28 48
    L40 32 H88 L100 48 Z"/>
  <path fill="#28211D" d="
    M34 48
    L44 36 H84 L94 48 Z"/>
  <!-- lid slot -->
  <rect x="54" y="38" width="20" height="4" rx="2" fill="#FAF7F0"/>
  <!-- front window / product -->
  <rect x="40" y="60" width="48" height="36" rx="6" fill="#FAF7F0"/>
  <!-- sandwich peek -->
  <path fill="#28211D" d="M46 78 C46 70 54 66 64 66 C74 66 82 70 82 78 V88 H46 Z"/>
  <rect x="50" y="72" width="28" height="3" rx="1.5" fill="#FAF7F0"/>
  <rect x="52" y="78" width="24" height="8" rx="3" fill="#28211D"/>
  <!-- brand stripe -->
  <rect x="28" y="52" width="72" height="5" fill="#28211D" opacity="0.25"/>
</svg>
